<svg version="1.1" xmlns="http://www.w3.org/2000/svg" xmlns:xlink="http://www.w3.org/1999/xlink" width="68.58702" height="89.6978" viewBox="0,0,68.58702,89.6978"><g transform="translate(-204.77841,-152.58292)"><g data-paper-data="{&quot;isPaintingLayer&quot;:true}" fill-rule="nonzero" stroke-linecap="butt" stroke-linejoin="miter" stroke-miterlimit="10" stroke-dasharray="" stroke-dashoffset="0" style="mix-blend-mode: normal"><path d="M237.8979,183.50043c15.09834,0 27.33796,12.01435 27.33796,26.83481c0,14.82046 -12.23962,26.83481 -27.33796,26.83481c-15.09834,0 -27.33796,-12.01435 -27.33796,-26.83481c0,-14.82046 12.23962,-26.83481 27.33796,-26.83481z" data-paper-data="{&quot;index&quot;:null}" fill="#ffffff" stroke="#000000" stroke-width="1.5"/><path d="M238.14384,206.6671c-14.72783,0 -26.6671,-11.93926 -26.6671,-26.66709c0,-14.72783 11.93927,-26.66709 26.6671,-26.66709c14.72783,0 26.6671,11.93926 26.6671,26.66709c0,14.72783 -11.93927,26.66709 -26.6671,26.66709z" data-paper-data="{&quot;index&quot;:null}" fill="#ffffff" stroke="#000000" stroke-width="1.5"/><path d="M266.24217,204.96828c3.51986,0 6.37326,2.1776 6.37326,4.86381c0,2.68621 -2.8534,4.86381 -6.37326,4.86381c-3.51986,0 -6.37327,-2.1776 -6.37327,-4.86381c0,-2.68621 2.85341,-4.86381 6.37327,-4.86381z" data-paper-data="{&quot;index&quot;:null}" fill="#ffffff" stroke="#000000" stroke-width="1.5"/><path d="M215.9269,207.65176c0,2.22307 -2.32779,4.02522 -5.19925,4.02522c-2.87147,0 -5.19924,-1.80215 -5.19924,-4.02522c0,-2.22307 2.32778,-4.02522 5.19924,-4.02522c2.87147,0 5.19925,1.80215 5.19925,4.02522z" data-paper-data="{&quot;index&quot;:null}" fill="#ffffff" stroke="#000000" stroke-width="1.5"/><path d="M248.29639,227.77787c2.50095,0 4.52837,3.07868 4.52837,6.87642c0,3.79774 -2.02742,6.87643 -4.52837,6.87643c-2.50095,0 -4.52838,-3.07869 -4.52838,-6.87643c0,-3.79774 2.02743,-6.87642 4.52838,-6.87642z" data-paper-data="{&quot;index&quot;:null}" fill="#ffffff" stroke="#000000" stroke-width="1.5"/><path d="M222.6356,228.44874c2.40832,0 4.36066,2.47796 4.36066,5.53468c0,3.05672 -1.95234,5.53468 -4.36066,5.53468c-2.40832,0 -4.36066,-2.47796 -4.36066,-5.53468c0,-3.05672 1.95233,-5.53468 4.36066,-5.53468z" data-paper-data="{&quot;index&quot;:null}" fill="#ffffff" stroke="#000000" stroke-width="1.5"/><path d="M251.14759,169.74758c1.48204,0 2.68348,1.80215 2.68348,4.02523c0,2.22307 -1.20144,4.02522 -2.68348,4.02522c-1.48204,0 -2.68348,-1.80215 -2.68348,-4.02522c0,-2.22307 1.20144,-4.02523 2.68348,-4.02523z" data-paper-data="{&quot;index&quot;:null}" fill="#000000" stroke="#000000" stroke-width="1.5"/><path d="M235.21442,170.41845c1.57468,0 2.8512,1.95234 2.8512,4.36066c0,2.40832 -1.27652,4.36066 -2.8512,4.36066c-1.57468,0 -2.8512,-1.95233 -2.8512,-4.36066c0,-2.40832 1.27652,-4.36066 2.8512,-4.36066z" data-paper-data="{&quot;index&quot;:null}" fill="#000000" stroke="#000000" stroke-width="1.5"/><path d="M252.03147,187.73866l-0.00664,-0.24528c-0.11958,0.47439 -0.23916,0.94877 -0.35875,1.42316c-0.34608,0.74476 -0.45167,1.65949 -1.03823,2.23429c-0.46589,0.45655 -1.23396,0.42516 -1.86058,0.60641c-2.32082,0.67131 -6.57627,0.91661 -8.92543,0.3502c-2.11543,-0.51005 -4.07056,-2.97596 -2.5041,-5.23896c0.96647,-1.39622 3.17808,-1.35094 4.54206,-1.5812c2.96008,-0.49971 6.07649,0.09394 8.96462,-0.65149c0,0 1.21268,-0.30317 1.51585,0.90951c0.08497,0.33988 0.05087,0.60831 -0.04224,0.81865c0.35304,0.73511 -0.28656,1.37471 -0.28656,1.37471zM242.30188,187.7514c-0.94406,0.15505 -2.36578,-0.40091 -2.83752,0.43141c-0.21791,0.38448 -0.3135,0.98799 -0.02823,1.32553c0.64389,0.76189 1.99262,0.12817 2.99014,0.12166c2.04569,-0.01336 6.23012,0.84581 6.86108,-1.48263c0.06324,-0.25538 0.12649,-0.51075 0.18973,-0.76613c-2.37554,0.22376 -4.79947,-0.02002 -7.1752,0.37016z" data-paper-data="{&quot;index&quot;:null}" fill="#000000" stroke="none" stroke-width="0.5"/></g></g></svg>