<svg version="1.1" xmlns="http://www.w3.org/2000/svg" xmlns:xlink="http://www.w3.org/1999/xlink" width="220.15279" height="145.27084" viewBox="0,0,220.15279,145.27084"><g transform="translate(-131.02081,-99.47916)"><g data-paper-data="{&quot;isPaintingLayer&quot;:true}" fill-rule="nonzero" stroke-linejoin="miter" stroke-miterlimit="10" stroke-dasharray="" stroke-dashoffset="0" style="mix-blend-mode: normal"><path d="M134.83333,244.5v-137h207v137z" fill="#ffffff" stroke="#001919" stroke-width="0.5" stroke-linecap="butt"/><text transform="translate(150,162.69375) scale(0.5,0.5)" font-size="40" xml:space="preserve" fill="#000000" fill-rule="nonzero" stroke="none" stroke-width="1" stroke-linecap="butt" stroke-linejoin="miter" stroke-miterlimit="10" stroke-dasharray="" stroke-dashoffset="0" font-family="Sans Serif" font-weight="normal" text-anchor="start" style="mix-blend-mode: normal"><tspan x="0" dy="0">そのまま、足し算な</tspan><tspan x="0" dy="46.150000000000006px">ら足し算と入力して</tspan><tspan x="0" dy="46.150000000000006px">ください。</tspan></text><path d="M147.1736,120.99305l-7.83333,-7.83333" fill="none" stroke="#000000" stroke-width="0.5" stroke-linecap="round"/><path d="M131.02081,110.97916c0,-4.14214 3.35786,-7.5 7.5,-7.5c4.14214,0 7.5,3.35786 7.5,7.5c0,4.14214 -3.35786,7.5 -7.5,7.5c-4.14214,0 -7.5,-3.35786 -7.5,-7.5z" fill="#ff9e66" stroke="none" stroke-width="0" stroke-linecap="butt"/><path d="M342.85415,109.15972l-7.83333,7.83334" data-paper-data="{&quot;index&quot;:null}" fill="none" stroke="#000000" stroke-width="0.5" stroke-linecap="round"/><path d="M343.6736,114.47916c-4.14214,0 -7.5,-3.35787 -7.5,-7.5c0,-4.14213 3.35786,-7.5 7.5,-7.5c4.14213,0 7.5,3.35787 7.5,7.5c0,4.14213 -3.35787,7.5 -7.5,7.5z" data-paper-data="{&quot;index&quot;:null}" fill="#ff9e66" stroke="none" stroke-width="0" stroke-linecap="butt"/></g></g></svg>